<?xml version="1.0" encoding="UTF-8" standalone="no"?>
<!DOCTYPE svg PUBLIC "-//W3C//DTD SVG 1.1//EN"
 "http://www.w3.org/Graphics/SVG/1.1/DTD/svg11.dtd">
<!-- Generated by graphviz version 2.43.0 (0)
 -->
<!-- Title: workflow Pages: 1 -->
<svg width="227pt" height="338pt"
 viewBox="0.00 0.00 227.00 338.00" xmlns="http://www.w3.org/2000/svg" xmlns:xlink="http://www.w3.org/1999/xlink">
<g id="graph0" class="graph" transform="scale(1 1) rotate(0) translate(4 334)">
<title>workflow</title>
<g id="clust1" class="cluster">
<title>cluster_inputs</title>
<polygon fill="#eeeeee" stroke="#818281" stroke-width="2" points="8,-247 8,-322 211,-322 211,-247 8,-247"/>
<text text-anchor="middle" x="109.5" y="-306.8" font-family="Fira Sans" font-size="14.00">Workflow Inputs</text>
</g>
<g id="clust2" class="cluster">
<title>cluster_outputs</title>
<polygon fill="#eeeeee" stroke="#818281" stroke-width="2" points="43,-8 43,-83 184,-83 184,-8 43,-8"/>
<text text-anchor="middle" x="113.5" y="-15.8" font-family="Fira Sans" font-size="14.00">Workflow Outputs</text>
</g>
<!-- speakers -->
<g id="node1" class="node">
<title>speakers</title>
<polygon fill="#6fc1b5" stroke="#0f9884" stroke-width="2" points="203.5,-291 124.5,-291 124.5,-255 203.5,-255 203.5,-291"/>
<text text-anchor="middle" x="164" y="-269.3" font-family="Fira Sans" font-size="14.00">speakers</text>
</g>
<!-- calculation -->
<g id="node4" class="node">
<title>calculation</title>
<polygon fill="#c5e0b4" stroke="#385723" stroke-width="2" points="133.5,-219 42.5,-219 42.5,-183 133.5,-183 133.5,-219"/>
<text text-anchor="middle" x="88" y="-197.3" font-family="Fira Sans" font-size="14.00">calculation</text>
</g>
<!-- speakers&#45;&gt;calculation -->
<g id="edge2" class="edge">
<title>speakers&#45;&gt;calculation</title>
<path fill="none" stroke="#385723" stroke-width="2" d="M145.21,-254.7C135.83,-246.05 124.32,-235.45 114.09,-226.03"/>
<polygon fill="#385723" stroke="#385723" stroke-width="2" points="116.3,-223.3 106.57,-219.1 111.55,-228.45 116.3,-223.3"/>
</g>
<!-- population -->
<g id="node2" class="node">
<title>population</title>
<polygon fill="#6fc1b5" stroke="#0f9884" stroke-width="2" points="106,-291 16,-291 16,-255 106,-255 106,-291"/>
<text text-anchor="middle" x="61" y="-269.3" font-family="Fira Sans" font-size="14.00">population</text>
</g>
<!-- population&#45;&gt;calculation -->
<g id="edge1" class="edge">
<title>population&#45;&gt;calculation</title>
<path fill="none" stroke="#385723" stroke-width="2" d="M67.67,-254.7C70.71,-246.81 74.38,-237.3 77.76,-228.55"/>
<polygon fill="#385723" stroke="#385723" stroke-width="2" points="81.07,-229.69 81.4,-219.1 74.54,-227.17 81.07,-229.69"/>
</g>
<!-- image -->
<g id="node3" class="node">
<title>image</title>
<polygon fill="#f8cbad" stroke="#823909" stroke-width="2" points="117.5,-75 58.5,-75 58.5,-39 117.5,-39 117.5,-75"/>
<text text-anchor="middle" x="88" y="-53.3" font-family="Fira Sans" font-size="14.00">image</text>
</g>
<!-- plot -->
<g id="node5" class="node">
<title>plot</title>
<polygon fill="#c5e0b4" stroke="#385723" stroke-width="2" points="115,-147 61,-147 61,-111 115,-111 115,-147"/>
<text text-anchor="middle" x="88" y="-125.3" font-family="Fira Sans" font-size="14.00">plot</text>
</g>
<!-- calculation&#45;&gt;plot -->
<g id="edge3" class="edge">
<title>calculation&#45;&gt;plot</title>
<path fill="none" stroke="#385723" stroke-width="2" d="M88,-182.7C88,-174.98 88,-165.71 88,-157.11"/>
<polygon fill="#385723" stroke="#385723" stroke-width="2" points="91.5,-157.1 88,-147.1 84.5,-157.1 91.5,-157.1"/>
</g>
<!-- plot&#45;&gt;image -->
<g id="edge4" class="edge">
<title>plot&#45;&gt;image</title>
<path fill="none" stroke="#385723" stroke-width="2" d="M88,-110.7C88,-102.98 88,-93.71 88,-85.11"/>
<polygon fill="#385723" stroke="#385723" stroke-width="2" points="91.5,-85.1 88,-75.1 84.5,-85.1 91.5,-85.1"/>
</g>
</g>
</svg>
