<?xml version="1.0" encoding="UTF-8" standalone="no"?>
<!DOCTYPE svg PUBLIC "-//W3C//DTD SVG 1.1//EN"
 "http://www.w3.org/Graphics/SVG/1.1/DTD/svg11.dtd">
<!-- Generated by graphviz version 2.43.0 (0)
 -->
<!-- Title: workflow Pages: 1 -->
<svg width="153pt" height="227pt"
 viewBox="0.00 0.00 153.00 227.00" xmlns="http://www.w3.org/2000/svg" xmlns:xlink="http://www.w3.org/1999/xlink">
<g id="graph0" class="graph" transform="scale(1 1) rotate(0) translate(4 223)">
<title>workflow</title>
<g id="clust1" class="cluster">
<title>cluster_inputs</title>
<polygon fill="#eeeeee" stroke="#818281" stroke-width="2" points="8,-136 8,-211 137,-211 137,-136 8,-136"/>
<text text-anchor="middle" x="72.5" y="-195.8" font-family="Fira Sans" font-size="14.00">Workflow Inputs</text>
</g>
<!-- message -->
<g id="node1" class="node">
<title>message</title>
<polygon fill="#6fc1b5" stroke="#0f9884" stroke-width="2" points="111.5,-180 32.5,-180 32.5,-144 111.5,-144 111.5,-180"/>
<text text-anchor="middle" x="72" y="-158.3" font-family="Fira Sans" font-size="14.00">message</text>
</g>
<!-- echo -->
<g id="node2" class="node">
<title>echo</title>
<polygon fill="#c5e0b4" stroke="#385723" stroke-width="2" points="99,-108 45,-108 45,-72 99,-72 99,-108"/>
<text text-anchor="middle" x="72" y="-86.3" font-family="Fira Sans" font-size="14.00">echo</text>
</g>
<!-- message&#45;&gt;echo -->
<g id="edge1" class="edge">
<title>message&#45;&gt;echo</title>
<path fill="none" stroke="#385723" stroke-width="2" d="M72,-143.7C72,-135.98 72,-126.71 72,-118.11"/>
<polygon fill="#385723" stroke="#385723" stroke-width="2" points="75.5,-118.1 72,-108.1 68.5,-118.1 75.5,-118.1"/>
</g>
<!-- cat -->
<g id="node3" class="node">
<title>cat</title>
<polygon fill="#c5e0b4" stroke="#385723" stroke-width="2" points="99,-36 45,-36 45,0 99,0 99,-36"/>
<text text-anchor="middle" x="72" y="-14.3" font-family="Fira Sans" font-size="14.00">cat</text>
</g>
<!-- echo&#45;&gt;cat -->
<g id="edge2" class="edge">
<title>echo&#45;&gt;cat</title>
<path fill="none" stroke="#385723" stroke-width="2" d="M72,-71.7C72,-63.98 72,-54.71 72,-46.11"/>
<polygon fill="#385723" stroke="#385723" stroke-width="2" points="75.5,-46.1 72,-36.1 68.5,-46.1 75.5,-46.1"/>
</g>
</g>
</svg>
