<?xml version="1.0" encoding="UTF-8" standalone="no"?>
<!DOCTYPE svg PUBLIC "-//W3C//DTD SVG 1.1//EN"
 "http://www.w3.org/Graphics/SVG/1.1/DTD/svg11.dtd">
<!-- Generated by graphviz version 2.43.0 (0)
 -->
<!-- Title: G Pages: 1 -->
<svg width="192pt" height="322pt"
 viewBox="0.00 0.00 192.00 322.00" xmlns="http://www.w3.org/2000/svg" xmlns:xlink="http://www.w3.org/1999/xlink">
<g id="graph0" class="graph" transform="scale(1 1) rotate(0) translate(4 318)">
<title>G</title>
<polygon fill="#eeeeee" stroke="transparent" points="-4,4 -4,-318 188,-318 188,4 -4,4"/>
<g id="clust1" class="cluster">
<title>cluster_inputs</title>
<polygon fill="#eeeeee" stroke="black" stroke-dasharray="5,2" points="8,-230 8,-306 176,-306 176,-230 8,-230"/>
<text text-anchor="middle" x="109.5" y="-237.8" font-family="Times,serif" font-size="14.00">Workflow Inputs</text>
</g>
<g id="clust2" class="cluster">
<title>cluster_outputs</title>
<polygon fill="#eeeeee" stroke="black" stroke-dasharray="5,2" points="23,-8 23,-84 168,-84 168,-8 23,-8"/>
<text text-anchor="middle" x="95.5" y="-15.8" font-family="Times,serif" font-size="14.00">Workflow Outputs</text>
</g>
<!-- calculation -->
<g id="node1" class="node">
<title>calculation</title>
<polygon fill="lightgoldenrodyellow" stroke="black" points="17,-185.5 17,-221.5 111,-221.5 111,-185.5 17,-185.5"/>
<text text-anchor="middle" x="64" y="-199.8" font-family="Times,serif" font-size="14.00">calculation</text>
</g>
<!-- plot -->
<g id="node2" class="node">
<title>plot</title>
<polygon fill="lightgoldenrodyellow" stroke="black" points="37,-112.5 37,-148.5 91,-148.5 91,-112.5 37,-112.5"/>
<text text-anchor="middle" x="64" y="-126.8" font-family="Times,serif" font-size="14.00">plot</text>
</g>
<!-- calculation&#45;&gt;plot -->
<g id="edge1" class="edge">
<title>calculation&#45;&gt;plot</title>
<path fill="none" stroke="black" d="M64,-185.31C64,-177.29 64,-167.55 64,-158.57"/>
<polygon fill="black" stroke="black" points="67.5,-158.53 64,-148.53 60.5,-158.53 67.5,-158.53"/>
</g>
<!-- out -->
<g id="node5" class="node">
<title>out</title>
<polygon fill="#94ddf4" stroke="black" points="37,-39.5 37,-75.5 91,-75.5 91,-39.5 37,-39.5"/>
<text text-anchor="middle" x="64" y="-53.8" font-family="Times,serif" font-size="14.00">out</text>
</g>
<!-- plot&#45;&gt;out -->
<g id="edge4" class="edge">
<title>plot&#45;&gt;out</title>
<path fill="none" stroke="black" d="M64,-112.31C64,-104.29 64,-94.55 64,-85.57"/>
<polygon fill="black" stroke="black" points="67.5,-85.53 64,-75.53 60.5,-85.53 67.5,-85.53"/>
</g>
<!-- pop -->
<g id="node3" class="node">
<title>pop</title>
<polygon fill="#94ddf4" stroke="black" points="114,-261.5 114,-297.5 168,-297.5 168,-261.5 114,-261.5"/>
<text text-anchor="middle" x="141" y="-275.8" font-family="Times,serif" font-size="14.00">pop</text>
</g>
<!-- pop&#45;&gt;calculation -->
<g id="edge2" class="edge">
<title>pop&#45;&gt;calculation</title>
<path fill="none" stroke="black" d="M130.4,-261.07C123.87,-251.22 114.87,-239.09 105,-230 104.2,-229.26 103.37,-228.53 102.53,-227.81"/>
<polygon fill="black" stroke="black" points="104.57,-224.97 94.5,-221.65 100.3,-230.52 104.57,-224.97"/>
</g>
<!-- speakers -->
<g id="node4" class="node">
<title>speakers</title>
<polygon fill="#94ddf4" stroke="black" points="16,-261.5 16,-297.5 96,-297.5 96,-261.5 16,-261.5"/>
<text text-anchor="middle" x="56" y="-275.8" font-family="Times,serif" font-size="14.00">speakers</text>
</g>
<!-- speakers&#45;&gt;calculation -->
<g id="edge3" class="edge">
<title>speakers&#45;&gt;calculation</title>
<path fill="none" stroke="black" d="M57.86,-261.34C58.8,-252.56 59.98,-241.66 61.05,-231.77"/>
<polygon fill="black" stroke="black" points="64.56,-231.89 62.15,-221.57 57.6,-231.14 64.56,-231.89"/>
</g>
</g>
</svg>
